<mxfile host="app.diagrams.net" agent="Mozilla/5.0 (Macintosh; Intel Mac OS X 10_15_7) AppleWebKit/537.36 (KHTML, like Gecko) Chrome/131.0.0.0 Safari/537.36" version="25.0.3">
  <diagram name="Page-1" id="5AyqhtqaLf5A3ZenPF8d">
    <mxGraphModel dx="595" dy="540" grid="1" gridSize="10" guides="1" tooltips="1" connect="1" arrows="1" fold="1" page="1" pageScale="1" pageWidth="827" pageHeight="1169" math="0" shadow="0">
      <root>
        <mxCell id="0" />
        <mxCell id="1" parent="0" />
        <mxCell id="wOrCorrKDnmC2u36uK7u-5" value="EXAMPLE INTERACTION" style="rounded=0;whiteSpace=wrap;html=1;verticalAlign=top;" vertex="1" parent="1">
          <mxGeometry x="120" y="80" width="320" height="260" as="geometry" />
        </mxCell>
        <mxCell id="wOrCorrKDnmC2u36uK7u-1" value="BACKEND - C" style="rounded=0;whiteSpace=wrap;html=1;" vertex="1" parent="1">
          <mxGeometry x="160" y="290" width="240" height="40" as="geometry" />
        </mxCell>
        <mxCell id="wOrCorrKDnmC2u36uK7u-7" style="edgeStyle=orthogonalEdgeStyle;rounded=0;orthogonalLoop=1;jettySize=auto;html=1;exitX=0.25;exitY=1;exitDx=0;exitDy=0;entryX=0.25;entryY=0;entryDx=0;entryDy=0;" edge="1" parent="1" source="wOrCorrKDnmC2u36uK7u-2" target="wOrCorrKDnmC2u36uK7u-1">
          <mxGeometry relative="1" as="geometry" />
        </mxCell>
        <mxCell id="wOrCorrKDnmC2u36uK7u-2" value="Client ?" style="rounded=0;whiteSpace=wrap;html=1;" vertex="1" parent="1">
          <mxGeometry x="160" y="120" width="240" height="40" as="geometry" />
        </mxCell>
        <mxCell id="wOrCorrKDnmC2u36uK7u-8" value="&lt;div&gt;&lt;font style=&quot;font-size: 10px;&quot;&gt;GET&lt;/font&gt; Request&lt;/div&gt;Header: &amp;lt;g&amp;gt;" style="rounded=0;whiteSpace=wrap;html=1;" vertex="1" parent="1">
          <mxGeometry x="180" y="170" width="80" height="30" as="geometry" />
        </mxCell>
        <mxCell id="wOrCorrKDnmC2u36uK7u-9" style="edgeStyle=orthogonalEdgeStyle;rounded=0;orthogonalLoop=1;jettySize=auto;html=1;entryX=0.5;entryY=0;entryDx=0;entryDy=0;" edge="1" parent="1" target="wOrCorrKDnmC2u36uK7u-1">
          <mxGeometry relative="1" as="geometry">
            <mxPoint x="280" y="160" as="sourcePoint" />
            <mxPoint x="279.6" y="280" as="targetPoint" />
          </mxGeometry>
        </mxCell>
        <mxCell id="wOrCorrKDnmC2u36uK7u-10" value="&lt;div&gt;&lt;font style=&quot;font-size: 10px;&quot;&gt;POST&lt;/font&gt; Request&lt;/div&gt;Header: &amp;lt;p&amp;gt;" style="rounded=0;whiteSpace=wrap;html=1;" vertex="1" parent="1">
          <mxGeometry x="235" y="210" width="90" height="30" as="geometry" />
        </mxCell>
        <mxCell id="wOrCorrKDnmC2u36uK7u-12" style="edgeStyle=orthogonalEdgeStyle;rounded=0;orthogonalLoop=1;jettySize=auto;html=1;entryX=0.75;entryY=0;entryDx=0;entryDy=0;" edge="1" parent="1" target="wOrCorrKDnmC2u36uK7u-1">
          <mxGeometry relative="1" as="geometry">
            <mxPoint x="340" y="160" as="sourcePoint" />
            <mxPoint x="340" y="320" as="targetPoint" />
          </mxGeometry>
        </mxCell>
        <mxCell id="wOrCorrKDnmC2u36uK7u-11" value="&lt;div&gt;&lt;font style=&quot;font-size: 10px;&quot;&gt;ACTION&lt;/font&gt; Request&lt;/div&gt;Header: &amp;lt;a&amp;gt;" style="rounded=0;whiteSpace=wrap;html=1;" vertex="1" parent="1">
          <mxGeometry x="290" y="251" width="90" height="30" as="geometry" />
        </mxCell>
        <mxCell id="wOrCorrKDnmC2u36uK7u-13" value="&lt;div&gt;&lt;font style=&quot;font-size: 10px;&quot;&gt;&lt;font color=&quot;#ff0d05&quot;&gt;Disconnect socket:&lt;/font&gt;&amp;nbsp;&lt;span style=&quot;background-color: initial;&quot;&gt;&amp;lt;a&amp;gt;disconnect&lt;/span&gt;&lt;/font&gt;&lt;/div&gt;&lt;div&gt;&lt;font style=&quot;font-size: 10px;&quot; color=&quot;#ff0d05&quot;&gt;Close server socket:&lt;/font&gt;&lt;span style=&quot;font-size: 10px;&quot;&gt;&amp;nbsp;&lt;/span&gt;&lt;span style=&quot;font-size: 10px; background-color: initial;&quot;&gt;&amp;lt;a&amp;gt;close&lt;/span&gt;&lt;span style=&quot;font-size: 10px;&quot;&gt;&lt;br&gt;&lt;/span&gt;&lt;font style=&quot;font-size: 10px;&quot;&gt;&lt;div&gt;&lt;/div&gt;&lt;div&gt;&lt;br style=&quot;font-size: 12px;&quot;&gt;&lt;/div&gt;&lt;/font&gt;&lt;/div&gt;&lt;font style=&quot;font-size: 10px;&quot;&gt;&lt;font color=&quot;#ff0d05&quot;&gt;Create student:&lt;/font&gt;&amp;nbsp;&lt;/font&gt;&lt;span style=&quot;font-size: 10px; background-color: initial;&quot;&gt;&amp;lt;p&amp;gt;student/101/student_name&lt;/span&gt;&lt;div&gt;&lt;font style=&quot;font-size: 10px;&quot;&gt;&lt;font color=&quot;#ff0d05&quot;&gt;Get student:&lt;/font&gt;&amp;nbsp;&lt;/font&gt;&lt;span style=&quot;background-color: initial; font-size: 10px;&quot;&gt;&amp;lt;g&amp;gt;student/101&lt;/span&gt;&lt;div&gt;&lt;/div&gt;&lt;div&gt;&lt;div&gt;&lt;br&gt;&lt;/div&gt;&lt;/div&gt;&lt;div&gt;&lt;font style=&quot;font-size: 10px;&quot; color=&quot;#ff0d05&quot;&gt;Create seance:&amp;nbsp;&lt;/font&gt;&lt;span style=&quot;font-size: 10px;&quot;&gt;&amp;lt;p&amp;gt;seance/201/seance_name&lt;/span&gt;&lt;/div&gt;&lt;div&gt;&lt;font style=&quot;background-color: initial; font-size: 10px;&quot; color=&quot;#ff0d05&quot;&gt;Get seance&amp;nbsp;&lt;/font&gt;&lt;span style=&quot;background-color: initial; font-size: 10px;&quot;&gt;&amp;lt;g&amp;gt;seance/201&lt;/span&gt;&lt;span style=&quot;font-size: 10px;&quot;&gt;&lt;/span&gt;&lt;/div&gt;&lt;div&gt;&lt;font style=&quot;font-size: 10px; background-color: initial;&quot; color=&quot;#ff0d05&quot;&gt;Set student 101 present:&amp;nbsp;&lt;/font&gt;&lt;span style=&quot;font-size: 10px; background-color: initial;&quot;&gt;&amp;lt;p&amp;gt;seance/201/101/present&lt;/span&gt;&lt;/div&gt;&lt;/div&gt;" style="rounded=0;whiteSpace=wrap;html=1;" vertex="1" parent="1">
          <mxGeometry x="460" y="80" width="250" height="140" as="geometry" />
        </mxCell>
        <mxCell id="wOrCorrKDnmC2u36uK7u-31" value="&lt;div&gt;&lt;font style=&quot;font-size: 10px;&quot;&gt;&lt;font color=&quot;#ff0d05&quot;&gt;Answer OK:&lt;/font&gt;&amp;nbsp;&lt;span style=&quot;background-color: initial;&quot;&gt;202/OK&lt;/span&gt;&lt;/font&gt;&lt;/div&gt;&lt;div&gt;&lt;span style=&quot;font-size: 10px; background-color: initial;&quot;&gt;&lt;font color=&quot;#ff0d05&quot;&gt;Invalid request:&amp;nbsp;&lt;/font&gt;400/BAD&lt;/span&gt;&lt;span style=&quot;font-size: 10px;&quot;&gt;&lt;br&gt;&lt;/span&gt;&lt;font style=&quot;font-size: 10px;&quot;&gt;&lt;div&gt;&lt;/div&gt;&lt;div&gt;&lt;br style=&quot;font-size: 12px;&quot;&gt;&lt;/div&gt;&lt;/font&gt;&lt;/div&gt;&lt;font style=&quot;font-size: 10px;&quot;&gt;&lt;font color=&quot;#ff0d05&quot;&gt;Disconnect client:&lt;/font&gt;&amp;nbsp;&lt;/font&gt;&lt;span style=&quot;font-size: 10px; background-color: initial;&quot;&gt;499/DISCONNECTED&lt;/span&gt;&lt;div&gt;&lt;font style=&quot;font-size: 10px;&quot;&gt;&lt;font color=&quot;#ff0d05&quot;&gt;Close server:&lt;/font&gt;&amp;nbsp;&lt;/font&gt;&lt;span style=&quot;background-color: initial; font-size: 10px;&quot;&gt;499/CLOSED&lt;/span&gt;&lt;div&gt;&lt;/div&gt;&lt;div&gt;&lt;div&gt;&lt;br&gt;&lt;/div&gt;&lt;/div&gt;&lt;div&gt;&lt;font style=&quot;font-size: 10px;&quot; color=&quot;#ff0d05&quot;&gt;GET ANSWER:&amp;nbsp;&lt;/font&gt;&lt;span style=&quot;font-size: 10px;&quot;&gt;202/OK/&amp;lt;content&amp;gt;&lt;/span&gt;&lt;/div&gt;&lt;/div&gt;" style="rounded=0;whiteSpace=wrap;html=1;" vertex="1" parent="1">
          <mxGeometry x="460" y="240" width="250" height="100" as="geometry" />
        </mxCell>
      </root>
    </mxGraphModel>
  </diagram>
</mxfile>
